<svg width="40" height="40" viewBox="0 0 40 40" fill="none" xmlns="http://www.w3.org/2000/svg">
<circle cx="20" cy="20" r="20" fill="black"/>
<path d="M27.0464 12.4014L13.7974 12.0001C13.4796 11.9933 13.2126 12.2579 13.2075 12.5522C13.2022 12.8512 13.4607 13.132 13.7596 13.1419L25.6912 13.5058L12.1662 27.0307C11.9446 27.2525 11.9446 27.6118 12.1662 27.8337C12.3879 28.0555 12.7474 28.0553 12.9692 27.8337L26.4942 14.3088L26.858 26.2403C26.8679 26.5392 27.1487 26.8025 27.4479 26.7924C27.747 26.7827 27.9988 26.5377 28 26.2025L27.5987 12.9535C27.5635 12.6131 27.293 12.4228 27.0466 12.4013L27.0464 12.4014Z" fill="white"/>
</svg>
