<svg width="31" height="31" viewBox="0 0 31 31" fill="none" xmlns="http://www.w3.org/2000/svg">
<g clip-path="url(#clip0_54_365)">
<path d="M20.194 3.46024C15.581 -1.15276 8.07301 -1.15276 3.46001 3.46024C-1.15199 8.07424 -1.15199 15.5812 3.46001 20.1952C7.56801 24.3022 13.966 24.7422 18.576 21.5352C18.673 21.9942 18.895 22.4322 19.252 22.7892L25.97 29.5072C26.949 30.4842 28.531 30.4842 29.505 29.5072C30.483 28.5292 30.483 26.9472 29.505 25.9722L22.787 19.2522C22.432 18.8982 21.993 18.6752 21.534 18.5782C24.743 13.9672 24.303 7.57024 20.194 3.46024ZM18.073 18.0742C14.629 21.5182 9.02401 21.5182 5.58101 18.0742C2.13901 14.6302 2.13901 9.02624 5.58101 5.58224C9.02401 2.13924 14.629 2.13924 18.073 5.58224C21.517 9.02624 21.517 14.6302 18.073 18.0742Z" fill="white"/>
</g>
<defs>
<clipPath id="clip0_54_365">
<rect width="30.239" height="30.239" fill="white"/>
</clipPath>
</defs>
</svg>
