<svg width="36" height="36" viewBox="0 0 36 36" fill="none" xmlns="http://www.w3.org/2000/svg">
<g clip-path="url(#clip0_56_523)">
<path d="M28.476 0H7.524C3.36847 0 0 3.36847 0 7.524V28.476C0 32.6315 3.36847 36 7.524 36H28.476C32.6315 36 36 32.6315 36 28.476V7.524C36 3.36847 32.6315 0 28.476 0V0Z" fill="url(#paint0_linear_56_523)"/>
<path d="M-1.52588e-05 19.5098V28.4763C-1.52588e-05 32.6318 3.36846 36.0003 7.52398 36.0003H28.476C32.6315 36.0003 36 32.6318 36 28.4763V19.5098H-1.52588e-05Z" fill="url(#paint1_linear_56_523)"/>
<path d="M7.52396 36.0003H28.476C30.8842 36.0003 33.028 34.8688 34.4052 33.1086L21.7694 17.6029C19.8237 15.2151 16.1763 15.2151 14.2305 17.6029L1.59476 33.1086C2.97193 34.8688 5.1157 36.0003 7.52396 36.0003Z" fill="url(#paint2_linear_56_523)"/>
<path d="M-1.52588e-05 24.3267V28.4758C-1.52588e-05 32.6314 3.36846 35.9999 7.52398 35.9999H28.476C32.6315 35.9999 36 32.6314 36 28.4758V24.3267H-1.52588e-05Z" fill="url(#paint3_linear_56_523)"/>
<path d="M30.9052 0.401367L14.7432 19.3451L30.9734 35.5753C33.9011 34.5455 35.9999 31.7563 35.9999 28.4764V7.52436C35.9999 4.21892 33.8686 1.41163 30.9052 0.401367Z" fill="url(#paint4_linear_56_523)"/>
<path d="M28.476 0H7.52396C5.01942 0 2.80111 1.22393 1.43353 3.10602L14.2305 23.0824C16.1762 25.4701 19.8236 25.4701 21.7694 23.0824L34.5664 3.10602C33.1988 1.22393 30.9805 0 28.476 0V0Z" fill="url(#paint5_linear_56_523)"/>
<path d="M28.476 0H7.52396C5.01942 0 2.80111 1.22393 1.43353 3.10602L14.2305 23.0824C16.1762 25.4701 19.8236 25.4701 21.7694 23.0824L34.5664 3.10602C33.1988 1.22393 30.9805 0 28.476 0V0Z" fill="url(#paint6_linear_56_523)"/>
<path d="M35.4444 31.3172L21.964 17.8368C21.0076 16.7677 19.6179 16.0942 18.0705 16.0942C15.1856 16.0942 12.8469 18.4329 12.8469 21.3178C12.8469 22.8652 13.5203 24.2549 14.5895 25.2113L25.3782 36.0001H28.4759C31.626 36.0001 34.3234 34.0641 35.4444 31.3172Z" fill="url(#paint7_linear_56_523)"/>
<path d="M17.9998 26.4705C20.8847 26.4705 23.2234 24.1319 23.2234 21.247C23.2234 18.3621 20.8847 16.0234 17.9998 16.0234C15.115 16.0234 12.7763 18.3621 12.7763 21.247C12.7763 24.1319 15.115 26.4705 17.9998 26.4705Z" fill="url(#paint8_linear_56_523)"/>
<path d="M18.0001 25.361C20.2723 25.361 22.1142 23.5191 22.1142 21.2469C22.1142 18.9748 20.2723 17.1328 18.0001 17.1328C15.728 17.1328 13.886 18.9748 13.886 21.2469C13.886 23.5191 15.728 25.361 18.0001 25.361Z" fill="url(#paint9_linear_56_523)"/>
<path d="M18.049 18.0386C15.9218 18.0386 14.894 19.4776 14.894 21.3366C14.894 23.437 16.2077 24.4559 17.62 24.4559C18.1473 24.4559 19.2734 24.3219 19.2734 23.8839C19.2734 23.7498 19.1662 23.4906 18.9427 23.4906C18.7372 23.4906 18.4869 23.7051 17.7898 23.7051C16.2077 23.7051 15.7609 22.5969 15.7609 21.3277C15.7609 19.9691 16.2704 18.7894 18.0579 18.7894C19.5773 18.7894 20.2477 19.6563 20.2477 21.2562C20.2477 21.6495 20.2119 22.4807 19.765 22.4807C19.631 22.4807 19.5684 22.3913 19.5148 22.0606V20.5323C19.5148 19.7189 18.7641 19.3167 18.0043 19.3167C17.3609 19.3167 16.6726 19.6117 16.6726 19.9781C16.6726 20.148 16.8067 20.4876 16.9854 20.4876C17.1463 20.4876 17.3429 20.2373 17.8702 20.2373C18.3261 20.2373 18.5316 20.425 18.5316 20.8094V20.9256H18.2903C17.2714 20.9256 16.476 21.2116 16.476 22.0606C16.476 22.7846 17.0658 23.1153 17.5932 23.1153C18.0758 23.1153 18.4333 22.8471 18.7193 22.4628C18.7908 22.8561 19.1484 23.1421 19.6846 23.1421C20.6499 23.1421 21.1058 22.1947 21.1058 21.0328C21.1057 19.2094 19.9706 18.0386 18.049 18.0386ZM18.5852 21.6763C18.5852 22.0517 18.2009 22.4092 17.8702 22.4092C17.6825 22.4092 17.5663 22.2751 17.5663 22.0427C17.5663 21.6763 17.8612 21.4797 18.4243 21.4797H18.5852V21.6763Z" fill="url(#paint10_linear_56_523)"/>
</g>
<defs>
<linearGradient id="paint0_linear_56_523" x1="1.41176" y1="1.41176" x2="30.7887" y2="30.7887" gradientUnits="userSpaceOnUse">
<stop stop-color="#F7E07D"/>
<stop offset="1" stop-color="#E69642"/>
</linearGradient>
<linearGradient id="paint1_linear_56_523" x1="18" y1="20.3568" x2="18" y2="43.6968" gradientUnits="userSpaceOnUse">
<stop stop-color="#D52C1C" stop-opacity="0"/>
<stop offset="0.2813" stop-color="#CC2C20" stop-opacity="0.281"/>
<stop offset="0.7301" stop-color="#B52B2A" stop-opacity="0.73"/>
<stop offset="1" stop-color="#A42B31"/>
</linearGradient>
<linearGradient id="paint2_linear_56_523" x1="7.16156" y1="20.8564" x2="20.5852" y2="34.2801" gradientUnits="userSpaceOnUse">
<stop stop-color="#F7E07D"/>
<stop offset="1" stop-color="#E69642"/>
</linearGradient>
<linearGradient id="paint3_linear_56_523" x1="18" y1="28.2351" x2="18" y2="38.4008" gradientUnits="userSpaceOnUse">
<stop stop-color="#D52C1C" stop-opacity="0"/>
<stop offset="0.2813" stop-color="#CC2C20" stop-opacity="0.281"/>
<stop offset="0.7301" stop-color="#B52B2A" stop-opacity="0.73"/>
<stop offset="1" stop-color="#A42B31"/>
</linearGradient>
<linearGradient id="paint4_linear_56_523" x1="30.1428" y1="17.1815" x2="23.931" y2="12.5932" gradientUnits="userSpaceOnUse">
<stop stop-color="#D52C1C" stop-opacity="0"/>
<stop offset="0.2813" stop-color="#CC2C20" stop-opacity="0.281"/>
<stop offset="0.7301" stop-color="#B52B2A" stop-opacity="0.73"/>
<stop offset="1" stop-color="#A42B31"/>
</linearGradient>
<linearGradient id="paint5_linear_56_523" x1="10.8387" y1="-0.513106" x2="25.761" y2="14.4092" gradientUnits="userSpaceOnUse">
<stop stop-color="#F7E07D"/>
<stop offset="1" stop-color="#E69642"/>
</linearGradient>
<linearGradient id="paint6_linear_56_523" x1="20.2265" y1="12.2207" x2="24.2299" y2="28.6096" gradientUnits="userSpaceOnUse">
<stop stop-color="#D52C1C" stop-opacity="0"/>
<stop offset="0.2813" stop-color="#CC2C20" stop-opacity="0.281"/>
<stop offset="0.7301" stop-color="#B52B2A" stop-opacity="0.73"/>
<stop offset="1" stop-color="#A42B31"/>
</linearGradient>
<linearGradient id="paint7_linear_56_523" x1="26.9646" y1="30.2119" x2="13.57" y2="16.8173" gradientUnits="userSpaceOnUse">
<stop stop-color="#D52C1C" stop-opacity="0"/>
<stop offset="0.2813" stop-color="#CC2C20" stop-opacity="0.281"/>
<stop offset="0.7301" stop-color="#B52B2A" stop-opacity="0.73"/>
<stop offset="1" stop-color="#A42B31"/>
</linearGradient>
<linearGradient id="paint8_linear_56_523" x1="15.0449" y1="18.2921" x2="20.3749" y2="23.6221" gradientUnits="userSpaceOnUse">
<stop stop-color="#DC4955"/>
<stop offset="1" stop-color="#C4237C"/>
</linearGradient>
<linearGradient id="paint9_linear_56_523" x1="21.2987" y1="24.5455" x2="15.1" y2="18.3467" gradientUnits="userSpaceOnUse">
<stop stop-color="#DC4955"/>
<stop offset="1" stop-color="#C4237C"/>
</linearGradient>
<linearGradient id="paint10_linear_56_523" x1="17.9998" y1="10.9178" x2="17.9998" y2="24.2965" gradientUnits="userSpaceOnUse">
<stop stop-color="#8A1958" stop-opacity="0"/>
<stop offset="1" stop-color="#8A1958"/>
</linearGradient>
<clipPath id="clip0_56_523">
<rect width="36" height="36" fill="white"/>
</clipPath>
</defs>
</svg>
