<svg width="20" height="20" viewBox="0 0 20 20" fill="none" xmlns="http://www.w3.org/2000/svg">
<path d="M9.58333 0C14.8762 0 19.1667 4.477 19.1667 10C19.1667 15.523 14.8762 20 9.58333 20C4.29046 20 0 15.523 0 10C0 4.477 4.29046 0 9.58333 0ZM9.58333 1.395C7.39624 1.395 5.29872 2.3016 3.75221 3.91535C2.2057 5.5291 1.33687 7.71781 1.33687 10C1.33687 12.2822 2.2057 14.4709 3.75221 16.0847C5.29872 17.6984 7.39624 18.605 9.58333 18.605C11.7704 18.605 13.8679 17.6984 15.4145 16.0847C16.961 14.4709 17.8298 12.2822 17.8298 10C17.8298 7.71781 16.961 5.5291 15.4145 3.91535C13.8679 2.3016 11.7704 1.395 9.58333 1.395ZM8.69208 5.581C9.06104 5.581 9.36004 5.894 9.36004 6.279V11.163H14.0405C14.2134 11.1698 14.3771 11.2463 14.4971 11.3764C14.6171 11.5064 14.6841 11.68 14.6841 11.8605C14.6841 12.041 14.6171 12.2146 14.4971 12.3446C14.3771 12.4747 14.2134 12.5512 14.0405 12.558H8.69208C8.51468 12.558 8.34453 12.4845 8.21909 12.3536C8.09364 12.2227 8.02317 12.0451 8.02317 11.86V6.28C8.02317 5.894 8.32217 5.581 8.69208 5.581Z" fill="white"/>
</svg>
