<svg width="20" height="20" viewBox="0 0 20 20" fill="none" xmlns="http://www.w3.org/2000/svg">
<path d="M19.6786 7.52436C19.6765 7.50175 19.672 7.47942 19.6651 7.45777C19.6606 7.43844 19.6544 7.41956 19.6464 7.40134C19.6373 7.38354 19.6263 7.3667 19.6136 7.35113C19.601 7.33264 19.5864 7.31561 19.57 7.30027C19.5647 7.29569 19.5625 7.28943 19.5569 7.28485L16.402 4.8346V2.29511C16.402 1.75158 15.9613 1.31094 15.4178 1.31094H11.8626L10.4391 0.205697C10.0875 -0.0685656 9.59434 -0.0685656 9.24269 0.205697L7.8189 1.31094H4.26372C3.72019 1.31094 3.27954 1.75155 3.27954 2.29511V4.83463L0.125598 7.28489C0.120023 7.2895 0.117717 7.29573 0.112488 7.30031C0.0961495 7.31561 0.0815022 7.33268 0.0688539 7.35117C0.0562442 7.36674 0.0452491 7.38354 0.0360609 7.40138C0.0281029 7.41956 0.0218749 7.43847 0.0173769 7.45781C0.0105338 7.47915 0.00603577 7.50114 0.00392133 7.52344C0.00392133 7.53032 0 7.53624 0 7.54312V18.698C0.000461333 18.9067 0.0679697 19.1097 0.192568 19.277C0.194529 19.28 0.194875 19.2836 0.197143 19.2862C0.19945 19.2888 0.20437 19.2918 0.207638 19.2954C0.391941 19.5379 0.678582 19.6809 0.983177 19.6822H18.6984C19.0041 19.6813 19.292 19.5376 19.4765 19.2938C19.4791 19.2905 19.4831 19.2895 19.4854 19.2863C19.4877 19.283 19.488 19.28 19.49 19.2771C19.6146 19.1097 19.6821 18.9067 19.6825 18.6981V7.54404C19.6825 7.53716 19.6789 7.53124 19.6786 7.52436ZM9.6439 0.723351C9.75846 0.632314 9.9207 0.632314 10.0353 0.723351L10.7921 1.3109H8.88935L9.6439 0.723351ZM1.06583 19.0261L9.64393 12.3629C9.75858 12.272 9.9207 12.272 10.0353 12.3629L18.6157 19.0261H1.06583ZM19.0264 18.5147L10.4391 11.8452C10.0874 11.5712 9.59442 11.5712 9.24269 11.8452L0.655093 18.5147V8.04367L6.03101 12.2182C6.17425 12.3293 6.38039 12.3032 6.49145 12.16C6.60252 12.0167 6.57645 11.8106 6.43321 11.6995L0.971682 7.45873L3.27958 5.66523V8.20013C3.27958 8.38132 3.42647 8.52818 3.60762 8.52818C3.78881 8.52818 3.93567 8.38128 3.93567 8.20013V2.29507C3.93567 2.11389 4.08253 1.96703 4.26372 1.96703H15.4177C15.5989 1.96703 15.7458 2.11389 15.7458 2.29507V8.20013C15.7458 8.38132 15.8926 8.52818 16.0738 8.52818C16.255 8.52818 16.4018 8.38128 16.4018 8.20013V5.66523L18.7097 7.45873L13.2387 11.7071C13.1446 11.7784 13.096 11.8948 13.1117 12.0119C13.1273 12.129 13.2046 12.2286 13.3141 12.2728C13.4236 12.317 13.5485 12.2989 13.6409 12.2254L19.0263 8.04367V18.5147H19.0264Z" fill="#49585A"/>
<path d="M13.7775 7.87206V6.55984C13.7775 4.38565 12.0149 2.62313 9.84076 2.62313C7.66658 2.62313 5.90405 4.38565 5.90405 6.55984C5.90405 8.73402 7.66658 10.4965 9.84076 10.4965C10.0219 10.4965 10.1688 10.3497 10.1688 10.1685C10.1688 9.98731 10.0219 9.84045 9.84076 9.84045C8.02895 9.84045 6.56018 8.37168 6.56018 6.55988C6.56018 4.74807 8.02895 3.2793 9.84076 3.2793C11.6526 3.2793 13.1213 4.74807 13.1213 6.55988V7.8721C13.1213 8.23448 12.8276 8.52823 12.4652 8.52823C12.1028 8.52823 11.8091 8.23448 11.8091 7.8721V6.55988C11.8091 6.37869 11.6622 6.23183 11.481 6.23183C11.2998 6.23183 11.153 6.37869 11.153 6.55988C11.153 7.28459 10.5655 7.8721 9.84076 7.8721C9.11604 7.8721 8.52854 7.28459 8.52854 6.55988C8.52854 5.83516 9.11604 5.24765 9.84076 5.24765C10.0219 5.24765 10.1688 5.1008 10.1688 4.91961C10.1688 4.73842 10.0219 4.59156 9.84076 4.59156C8.95981 4.5896 8.18481 5.17323 7.94337 6.02046C7.70194 6.8677 8.05283 7.77218 8.80249 8.2349C9.55216 8.69762 10.518 8.60589 11.1671 8.01027C11.2385 8.70404 11.8415 9.21988 12.538 9.18302C13.2345 9.14611 13.7797 8.56952 13.7775 7.87206Z" fill="#49585A"/>
</svg>
