<svg width="27" height="27" viewBox="0 0 27 27" fill="none" xmlns="http://www.w3.org/2000/svg">
<path d="M13.1205 26.1318C9.56911 26.1318 9.15045 26.1131 7.76455 26.0525C6.6838 26.0171 5.61704 25.7977 4.6102 25.4038C2.86817 24.7269 1.49069 23.3509 0.813416 21.6111C0.43418 20.6021 0.229632 19.536 0.20853 18.4584C0.127686 17.0774 0.127686 16.6247 0.127686 13.1059C0.127686 9.54956 0.146453 9.13439 0.20853 7.75769C0.230094 6.6816 0.434634 5.61699 0.813416 4.60933C1.48995 2.86724 2.86967 1.49003 4.61453 0.815136C5.62312 0.434855 6.68954 0.23007 7.76744 0.20968C9.14612 0.131836 9.59942 0.131836 13.1205 0.131836C16.7007 0.131836 17.1121 0.150576 18.4764 0.20968C19.5571 0.230246 20.6263 0.43501 21.638 0.815136C23.3823 1.4908 24.7618 2.86774 25.4391 4.60933C25.8247 5.63167 26.0303 6.71293 26.0468 7.80527C26.1277 9.18628 26.1277 9.63749 26.1277 13.1549C26.1277 16.6723 26.1075 17.1336 26.0468 18.4988C26.0253 19.5773 25.8203 20.6444 25.4405 21.6543C24.7615 23.3953 23.382 24.7718 21.638 25.4485C20.6278 25.8265 19.5607 26.0307 18.4822 26.0525C17.1035 26.1318 16.6516 26.1318 13.1205 26.1318ZM13.0714 2.41383C9.54023 2.41383 9.17355 2.43113 7.79487 2.49311C6.97197 2.504 6.15703 2.65564 5.38543 2.94144C4.24604 3.3768 3.34445 4.27343 2.90381 5.40939C2.61539 6.18826 2.46351 7.01094 2.45484 7.84131C2.37832 9.23818 2.37832 9.60433 2.37832 13.1059C2.37832 16.5656 2.39132 16.9851 2.45484 18.3734C2.46776 19.1953 2.61955 20.0092 2.90381 20.7808C3.3451 21.916 4.24653 22.8119 5.38543 23.2473C6.1565 23.535 6.97178 23.6867 7.79487 23.6956C9.19232 23.7763 9.56045 23.7763 13.0714 23.7763C16.6126 23.7763 16.9793 23.759 18.3465 23.6956C19.1699 23.6856 19.9855 23.5339 20.7573 23.2473C21.8898 22.8082 22.7855 21.9142 23.226 20.7836C23.5138 20.0041 23.6657 19.1811 23.6749 18.3503H23.6908C23.7529 16.9722 23.7529 16.6046 23.7529 13.0828C23.7529 9.56109 23.737 9.19061 23.6749 7.81392C23.662 6.99288 23.5102 6.17992 23.226 5.40939C22.7866 4.27715 21.8907 3.38154 20.7573 2.94144C19.9856 2.6542 19.17 2.50251 18.3465 2.49311C16.9504 2.41383 16.5852 2.41383 13.0714 2.41383ZM13.1205 19.7645C10.4208 19.7662 7.98604 18.1438 6.95158 15.6538C5.91713 13.1638 6.4868 10.2968 8.39489 8.38976C10.303 6.48277 13.1737 5.91144 15.6681 6.94225C18.1626 7.97305 19.7895 10.4029 19.7901 13.0987C19.7861 16.7762 16.8033 19.7573 13.1205 19.7645ZM13.1205 8.77111C10.7286 8.77111 8.78954 10.7073 8.78954 13.0958C8.78954 15.4843 10.7286 17.4205 13.1205 17.4205C15.5124 17.4205 17.4514 15.4843 17.4514 13.0958C17.4458 10.7096 15.5101 8.77666 13.1205 8.77111ZM20.05 7.74328C19.1916 7.7401 18.4979 7.04353 18.4995 6.18641C18.5011 5.32928 19.1974 4.63528 20.0557 4.63528C20.9141 4.63528 21.6104 5.32927 21.612 6.18639C21.6124 6.59992 21.4478 6.99658 21.1547 7.28872C20.8616 7.58086 20.4641 7.74443 20.05 7.74328Z" fill="#FFC700"/>
</svg>
