<svg width="26" height="26" viewBox="0 0 26 26" fill="none" xmlns="http://www.w3.org/2000/svg">
<rect width="26" height="26" rx="12.974" fill="#33B7BC"/>
<path fill-rule="evenodd" clip-rule="evenodd" d="M13.3 5C13.2204 5 13.1441 5.03242 13.0879 5.09012C13.0316 5.14782 13 5.22609 13 5.30769V16.3846C13 17.2338 12.328 17.9231 11.5 17.9231C10.672 17.9231 10 17.2338 10 16.3846C10 15.5354 10.672 14.8462 11.5 14.8462C11.5796 14.8462 11.6559 14.8137 11.7121 14.756C11.7684 14.6983 11.8 14.6201 11.8 14.5385V12.0769C11.8 11.9953 11.7684 11.9171 11.7121 11.8594C11.6559 11.8016 11.5796 11.7692 11.5 11.7692C9.016 11.7692 7 13.8372 7 16.3846C7 18.9323 9.016 21 11.5 21C13.9837 21 16 18.9323 16 16.3846V10.6905C16.6598 10.9967 17.3758 11.1547 18.1 11.1538H18.7C18.7796 11.1538 18.8559 11.1214 18.9121 11.0637C18.9684 11.006 19 10.9278 19 10.8462V8.38462C19 8.30301 18.9684 8.22475 18.9121 8.16704C18.8559 8.10934 18.7796 8.07692 18.7 8.07692H18.1C16.9411 8.07692 16 7.11169 16 5.92308V5.30769C16 5.22609 15.9684 5.14782 15.9121 5.09012C15.8559 5.03242 15.7796 5 15.7 5H13.3Z" fill="white"/>
</svg>
