<svg width="36" height="36" viewBox="0 0 36 36" fill="none" xmlns="http://www.w3.org/2000/svg">
<path d="M22.1592 36H9.02781C6.82687 36 4.93637 34.7368 4.09411 32.7034C3.25178 30.67 3.69543 28.44 5.25169 26.8838C5.25663 26.8787 5.26171 26.8738 5.26673 26.8689L14.7063 17.747C15.1969 17.2727 15.9789 17.2863 16.4531 17.7768C16.9272 18.2674 16.9138 19.0495 16.4232 19.5235L6.9919 28.6375C5.99915 29.636 6.02273 30.9035 6.37665 31.7579C6.73129 32.6143 7.61407 33.5294 9.02781 33.5294H22.1592C22.8087 33.5294 23.0643 33.0343 23.1271 32.8826C23.19 32.7309 23.3593 32.2003 22.9 31.7409L21.7501 30.5911C21.2677 30.1087 21.2677 29.3265 21.7501 28.8441C22.2325 28.3617 23.0147 28.3617 23.4971 28.8441L24.6469 29.994C25.6722 31.0193 25.9645 32.4885 25.4096 33.8281C24.8547 35.1677 23.6092 36 22.1592 36Z" fill="url(#paint0_linear_56_498)"/>
<path d="M23.4969 28.8442C23.0145 28.3618 22.2324 28.3618 21.75 28.8442C21.2675 29.3266 21.2675 30.1087 21.75 30.5911L22.8999 31.741C23.3591 32.2003 23.1898 32.731 23.127 32.8827C23.0641 33.0344 22.8086 33.5294 22.1591 33.5294H18.6705V36H22.1591C23.6091 36 24.8546 35.1678 25.4095 33.8282C25.9644 32.4885 25.6722 31.0194 24.6468 29.9941L23.4969 28.8442Z" fill="url(#paint1_linear_56_498)"/>
<path d="M10.3652 21.9418L12.1124 23.689L16.423 19.5235C16.9136 19.0495 16.927 18.2674 16.4528 17.7768C15.9787 17.2863 15.1967 17.2727 14.7061 17.747L10.3652 21.9418Z" fill="url(#paint2_linear_56_498)"/>
<path d="M6.56456 32.153L6.57254 32.145C6.49531 32.0169 6.42981 31.8868 6.37644 31.758C6.02244 30.9036 5.99887 29.6361 6.99169 28.6376L11.0175 24.7472L9.27035 23L5.26659 26.8691C5.26157 26.874 5.25649 26.8789 5.25155 26.8839C4.52703 27.6084 4.044 28.479 3.81924 29.4077L6.56456 32.153Z" fill="url(#paint3_linear_56_498)"/>
<path d="M23.1906 22.6961C22.2244 22.0003 20.8793 22.2032 20.1611 23.153C18.7206 25.0583 16.0071 25.4402 14.1028 23.9983C13.4351 23.4928 10.605 20.6625 10.0994 19.9948C8.6575 18.0906 9.03946 15.3771 10.9447 13.9365C11.8945 13.2184 12.0974 11.8733 11.4016 10.907L8.03096 6.22554C7.21186 5.08794 5.55021 5.00126 4.6164 6.04667C4.59536 6.07018 4.57447 6.09361 4.55372 6.11698C2.08765 8.8899 1.18948 12.7302 2.22007 16.2951C2.57675 17.5288 3.06776 18.7094 3.61376 19.7973C5.9292 24.4111 9.6864 28.1683 14.3003 30.4838C15.3882 31.0298 16.5688 31.5208 17.8025 31.8775C21.3674 32.9082 25.2077 32.0099 27.9806 29.5439C28.004 29.5231 28.0274 29.5022 28.0509 29.4812C29.0963 28.5474 29.0096 26.8857 27.872 26.0667L23.1906 22.6961Z" fill="url(#paint4_linear_56_498)"/>
<path d="M20.1611 23.1528C18.7206 25.058 16.0071 25.44 14.1028 23.9981C13.9075 23.8501 13.5264 23.5025 13.0732 23.0689H5.5983C7.84971 26.1891 10.8331 28.7435 14.3003 30.4836C15.3882 31.0296 16.5688 31.5206 17.8025 31.8773C21.3674 32.9079 25.2077 32.0097 27.9806 29.5436C28.004 29.5229 28.0274 29.502 28.0509 29.4809C29.0963 28.5472 29.0096 26.8855 27.8721 26.0664L23.7087 23.0688H20.2278C20.2051 23.0962 20.1828 23.1241 20.1611 23.1528Z" fill="url(#paint5_linear_56_498)"/>
<path d="M27.8721 26.0667L23.1906 22.696C22.2242 22.0002 20.8792 22.2031 20.1611 23.1529C19.2187 24.3993 17.7316 24.9935 16.2826 24.8519L23.4003 31.9696C25.0738 31.5481 26.6502 30.7271 27.9806 29.5439C28.004 29.5231 28.0274 29.5022 28.0509 29.4812C29.0963 28.5474 29.0096 26.8856 27.8721 26.0667Z" fill="url(#paint6_linear_56_498)"/>
<path d="M9.24568 17.815C9.10415 16.366 9.69829 14.8789 10.9447 13.9365C11.8945 13.2184 12.0974 11.8733 11.4016 10.907L8.03093 6.22554C7.21182 5.08794 5.5501 5.00126 4.61636 6.04667C4.59533 6.07018 4.57443 6.09361 4.55368 6.11698C3.37048 7.44736 2.5494 9.0238 2.12791 10.6973L9.24568 17.815Z" fill="url(#paint7_linear_56_498)"/>
<path d="M13.1612 13.2524L12.0948 13.9954C11.207 14.6141 9.98558 14.396 9.36687 13.5081L5.19807 7.52568C4.57937 6.63782 4.79755 5.41643 5.68541 4.79772L6.75179 4.05464C7.63965 3.43593 8.86104 3.65412 9.47974 4.54198L13.6486 10.5244C14.2673 11.4123 14.0491 12.6337 13.1612 13.2524Z" fill="url(#paint8_linear_56_498)"/>
<path d="M6.27405 4.3877L5.68541 4.79788C4.79755 5.41659 4.57937 6.63791 5.19807 7.52584L9.36694 13.5083C9.98565 14.3961 11.207 14.6143 12.0949 13.9956L12.5948 13.6472L6.27405 4.3877Z" fill="url(#paint9_linear_56_498)"/>
<path d="M21.0502 21.1416L20.3071 22.208C19.6884 23.0958 19.9066 24.3172 20.7944 24.9359L26.7768 29.1048C27.6647 29.7235 28.8861 29.5053 29.5048 28.6175L30.2479 27.5511C30.8666 26.6632 30.6484 25.4418 29.7605 24.8231L23.7781 20.6542C22.8903 20.0355 21.6689 20.2537 21.0502 21.1416Z" fill="url(#paint10_linear_56_498)"/>
<path d="M29.5048 28.6173L30.1141 27.7429L20.7902 21.5146L20.3071 22.2079C19.6884 23.0958 19.9066 24.3171 20.7944 24.9358L26.7768 29.1047C27.6647 29.7234 28.8861 29.5052 29.5048 28.6173Z" fill="url(#paint11_linear_56_498)"/>
<path d="M31.2861 17.221C30.9799 16.9147 30.7893 16.4928 30.7861 16.0255C30.763 12.667 29.4422 9.50919 27.0667 7.13376C24.6913 4.75832 21.5335 3.43748 18.1749 3.41439C17.2322 3.4079 16.4731 2.63828 16.4795 1.6955C16.486 0.752652 17.2555 -0.00638306 18.1984 4.04715e-05C22.4601 0.0293346 26.4671 1.70538 29.4811 4.71943C32.4951 7.73348 34.1712 11.7404 34.2005 16.0021C34.2069 16.945 33.4478 17.7145 32.505 17.721C32.0294 17.7243 31.5978 17.5327 31.2861 17.221Z" fill="url(#paint12_linear_56_498)"/>
<path d="M16.9792 8.38567C16.6658 8.07226 16.474 7.63793 16.4793 7.15977C16.4896 6.21692 17.2622 5.46099 18.2051 5.4713C21.0027 5.50193 23.6334 6.60868 25.6126 8.58791C27.5918 10.5671 28.6987 13.1979 28.7292 15.9954C28.7395 16.9383 27.9835 17.7109 27.0408 17.7212C26.0979 17.7315 25.3252 16.9756 25.3149 16.0328C25.2942 14.133 24.5425 12.3466 23.1982 11.0023C21.854 9.65809 20.0674 8.90633 18.1677 8.88558C17.7031 8.88042 17.2838 8.69019 16.9792 8.38567Z" fill="url(#paint13_linear_56_498)"/>
<path d="M20.5608 17.2212C20.2627 16.9232 20.0739 16.515 20.0616 16.0604C20.0479 15.5535 19.8425 15.0764 19.4832 14.7172C19.1239 14.358 18.6469 14.1526 18.1399 14.1389C17.1973 14.1133 16.4539 13.3286 16.4796 12.3861C16.5051 11.4436 17.2899 10.7003 18.2323 10.7257C19.6163 10.7632 20.918 11.3233 21.8976 12.3029C22.8771 13.2824 23.4372 14.5842 23.4747 15.968C23.5003 16.9106 22.7568 17.6953 21.8143 17.7208C21.3264 17.7339 20.8807 17.5411 20.5608 17.2212Z" fill="url(#paint14_linear_56_498)"/>
<defs>
<linearGradient id="paint0_linear_56_498" x1="13.2447" y1="28.5082" x2="21.742" y2="37.0053" gradientUnits="userSpaceOnUse">
<stop stop-color="#5A5A5A"/>
<stop offset="1" stop-color="#464646"/>
</linearGradient>
<linearGradient id="paint1_linear_56_498" x1="20.4793" y1="34.6323" x2="23.6941" y2="31.4174" gradientUnits="userSpaceOnUse">
<stop stop-color="#464646" stop-opacity="0"/>
<stop offset="1" stop-color="#202020"/>
</linearGradient>
<linearGradient id="paint2_linear_56_498" x1="14.3105" y1="19.8165" x2="12.0733" y2="22.0536" gradientUnits="userSpaceOnUse">
<stop stop-color="#464646" stop-opacity="0"/>
<stop offset="1" stop-color="#202020"/>
</linearGradient>
<linearGradient id="paint3_linear_56_498" x1="6.27783" y1="29.1486" x2="8.43409" y2="26.9923" gradientUnits="userSpaceOnUse">
<stop stop-color="#464646" stop-opacity="0"/>
<stop offset="1" stop-color="#202020"/>
</linearGradient>
<linearGradient id="paint4_linear_56_498" x1="15.2916" y1="9.32048" x2="15.2916" y2="28.1708" gradientUnits="userSpaceOnUse">
<stop stop-color="#BCE097"/>
<stop offset="1" stop-color="#7DC03A"/>
</linearGradient>
<linearGradient id="paint5_linear_56_498" x1="16.9542" y1="26.4648" x2="15.3773" y2="32.1812" gradientUnits="userSpaceOnUse">
<stop stop-color="#8CC951" stop-opacity="0"/>
<stop offset="1" stop-color="#3E6E66"/>
</linearGradient>
<linearGradient id="paint6_linear_56_498" x1="20.93" y1="28.4683" x2="23.889" y2="25.366" gradientUnits="userSpaceOnUse">
<stop stop-color="#8CC951" stop-opacity="0"/>
<stop offset="1" stop-color="#3E6E66"/>
</linearGradient>
<linearGradient id="paint7_linear_56_498" x1="5.80775" y1="12.5602" x2="8.96382" y2="10.635" gradientUnits="userSpaceOnUse">
<stop stop-color="#8CC951" stop-opacity="0"/>
<stop offset="1" stop-color="#3E6E66"/>
</linearGradient>
<linearGradient id="paint8_linear_56_498" x1="5.46348" y1="5.06518" x2="13.0757" y2="12.6774" gradientUnits="userSpaceOnUse">
<stop stop-color="#BCE097"/>
<stop offset="1" stop-color="#7DC03A"/>
</linearGradient>
<linearGradient id="paint9_linear_56_498" x1="9.00949" y1="9.32238" x2="6.30504" y2="11.4259" gradientUnits="userSpaceOnUse">
<stop stop-color="#8CC951" stop-opacity="0"/>
<stop offset="1" stop-color="#3E6E66"/>
</linearGradient>
<linearGradient id="paint10_linear_56_498" x1="21.3734" y1="20.9754" x2="29.2931" y2="28.8951" gradientUnits="userSpaceOnUse">
<stop stop-color="#BCE097"/>
<stop offset="1" stop-color="#7DC03A"/>
</linearGradient>
<linearGradient id="paint11_linear_56_498" x1="25.1323" y1="25.0874" x2="23.0996" y2="27.7484" gradientUnits="userSpaceOnUse">
<stop stop-color="#8CC951" stop-opacity="0"/>
<stop offset="1" stop-color="#3E6E66"/>
</linearGradient>
<linearGradient id="paint12_linear_56_498" x1="26.3119" y1="2.78571" x2="24.7912" y2="12.2723" gradientUnits="userSpaceOnUse">
<stop stop-color="#EEF4FF"/>
<stop offset="1" stop-color="#CFE7FD"/>
</linearGradient>
<linearGradient id="paint13_linear_56_498" x1="24.0725" y1="2.42703" x2="22.5518" y2="11.9136" gradientUnits="userSpaceOnUse">
<stop stop-color="#EEF4FF"/>
<stop offset="1" stop-color="#CFE7FD"/>
</linearGradient>
<linearGradient id="paint14_linear_56_498" x1="21.9222" y1="2.08244" x2="20.4014" y2="11.569" gradientUnits="userSpaceOnUse">
<stop stop-color="#EEF4FF"/>
<stop offset="1" stop-color="#CFE7FD"/>
</linearGradient>
</defs>
</svg>
