<svg width="249" height="58" viewBox="0 0 249 58" fill="none" xmlns="http://www.w3.org/2000/svg">
<path d="M15.4844 27.5156H19.7812C19.6667 29.0365 19.2448 30.3854 18.5156 31.5625C17.7865 32.7292 16.7708 33.6458 15.4688 34.3125C14.1667 34.9792 12.5885 35.3125 10.7344 35.3125C9.30729 35.3125 8.02083 35.0625 6.875 34.5625C5.73958 34.0521 4.76562 33.3281 3.95312 32.3906C3.15104 31.4427 2.53646 30.3073 2.10938 28.9844C1.68229 27.651 1.46875 26.1562 1.46875 24.5V22.7656C1.46875 21.1094 1.6875 19.6146 2.125 18.2812C2.5625 16.9479 3.1875 15.8125 4 14.875C4.82292 13.9271 5.80729 13.1979 6.95312 12.6875C8.10938 12.1771 9.40104 11.9219 10.8281 11.9219C12.6823 11.9219 14.25 12.2656 15.5312 12.9531C16.8125 13.6302 17.8073 14.5625 18.5156 15.75C19.224 16.9375 19.651 18.3021 19.7969 19.8438H15.5C15.4167 18.8854 15.2083 18.0729 14.875 17.4062C14.5521 16.7396 14.0625 16.2344 13.4062 15.8906C12.7604 15.5365 11.901 15.3594 10.8281 15.3594C9.99479 15.3594 9.26042 15.5156 8.625 15.8281C8 16.1406 7.47917 16.6094 7.0625 17.2344C6.64583 17.849 6.33333 18.6198 6.125 19.5469C5.91667 20.4635 5.8125 21.526 5.8125 22.7344V24.5C5.8125 25.6562 5.90625 26.6927 6.09375 27.6094C6.28125 28.526 6.57292 29.3021 6.96875 29.9375C7.36458 30.5729 7.875 31.0573 8.5 31.3906C9.125 31.724 9.86979 31.8906 10.7344 31.8906C11.7865 31.8906 12.6406 31.724 13.2969 31.3906C13.9635 31.0573 14.4688 30.5677 14.8125 29.9219C15.1667 29.276 15.3906 28.474 15.4844 27.5156ZM32.1094 31.4062V23.6094C32.1094 23.0365 32.0104 22.5417 31.8125 22.125C31.6146 21.7083 31.3125 21.3854 30.9062 21.1562C30.5 20.9271 29.9844 20.8125 29.3594 20.8125C28.8073 20.8125 28.3229 20.9062 27.9062 21.0938C27.5 21.2812 27.1875 21.5469 26.9688 21.8906C26.75 22.224 26.6406 22.6094 26.6406 23.0469H22.5C22.5 22.349 22.6667 21.6875 23 21.0625C23.3333 20.4271 23.8073 19.8646 24.4219 19.375C25.0469 18.875 25.7917 18.4844 26.6562 18.2031C27.5312 17.9219 28.5104 17.7812 29.5938 17.7812C30.875 17.7812 32.0156 18 33.0156 18.4375C34.026 18.8646 34.8177 19.5104 35.3906 20.375C35.974 21.2396 36.2656 22.3281 36.2656 23.6406V31.0156C36.2656 31.8594 36.3177 32.5833 36.4219 33.1875C36.5365 33.7812 36.7031 34.2969 36.9219 34.7344V35H32.7188C32.5208 34.5729 32.3698 34.0312 32.2656 33.375C32.1615 32.7083 32.1094 32.0521 32.1094 31.4062ZM32.6875 24.7031L32.7188 27.1562H30.1094C29.4635 27.1562 28.8958 27.224 28.4062 27.3594C27.9167 27.4844 27.5156 27.6719 27.2031 27.9219C26.8906 28.1615 26.6562 28.4531 26.5 28.7969C26.3438 29.1302 26.2656 29.5104 26.2656 29.9375C26.2656 30.3542 26.3594 30.7292 26.5469 31.0625C26.7448 31.3958 27.026 31.6615 27.3906 31.8594C27.7656 32.0469 28.2031 32.1406 28.7031 32.1406C29.4323 32.1406 30.0677 31.9948 30.6094 31.7031C31.151 31.401 31.5729 31.0365 31.875 30.6094C32.1771 30.1823 32.3385 29.776 32.3594 29.3906L33.5469 31.1719C33.401 31.599 33.1823 32.0521 32.8906 32.5312C32.599 33.0104 32.224 33.4583 31.7656 33.875C31.3073 34.2917 30.7552 34.6354 30.1094 34.9062C29.4635 35.1771 28.7135 35.3125 27.8594 35.3125C26.7656 35.3125 25.7865 35.0938 24.9219 34.6562C24.0573 34.2188 23.375 33.6198 22.875 32.8594C22.375 32.099 22.125 31.2344 22.125 30.2656C22.125 29.3698 22.2917 28.5781 22.625 27.8906C22.9583 27.2031 23.4531 26.625 24.1094 26.1562C24.7656 25.6771 25.5781 25.3177 26.5469 25.0781C27.526 24.8281 28.6458 24.7031 29.9062 24.7031H32.6875ZM60.2969 26.7031V27.0312C60.2969 28.2396 60.1615 29.349 59.8906 30.3594C59.6302 31.3698 59.2344 32.2448 58.7031 32.9844C58.1823 33.724 57.5365 34.2969 56.7656 34.7031C55.9948 35.1094 55.1042 35.3125 54.0938 35.3125C53.1875 35.3125 52.3958 35.151 51.7188 34.8281C51.0521 34.4948 50.4896 34.0312 50.0312 33.4375C49.5833 32.8333 49.2188 32.1302 48.9375 31.3281C48.6667 30.5156 48.4635 29.6354 48.3281 28.6875V24.875C48.4635 23.8542 48.6667 22.9167 48.9375 22.0625C49.2083 21.1979 49.5729 20.4479 50.0312 19.8125C50.4896 19.1667 51.0469 18.6667 51.7031 18.3125C52.3698 17.9583 53.1562 17.7812 54.0625 17.7812C54.8854 17.7812 55.625 17.9219 56.2812 18.2031C56.9375 18.4844 57.5156 18.8906 58.0156 19.4219C58.5156 19.9427 58.9323 20.5729 59.2656 21.3125C59.6094 22.0417 59.8646 22.8646 60.0312 23.7812C60.2083 24.6875 60.2969 25.6615 60.2969 26.7031ZM56.1562 27.0312V26.7031C56.1562 26.0885 56.1198 25.5 56.0469 24.9375C55.974 24.3646 55.8594 23.8438 55.7031 23.375C55.5469 22.9062 55.3438 22.4948 55.0938 22.1406C54.8438 21.7865 54.5417 21.5156 54.1875 21.3281C53.8333 21.1302 53.4271 21.0312 52.9688 21.0312C52.2604 21.0312 51.6771 21.1615 51.2188 21.4219C50.7708 21.6823 50.4323 22.0417 50.2031 22.5C49.9844 22.9583 49.8542 23.4948 49.8125 24.1094V29.4688C49.8646 29.9896 50.0052 30.4427 50.2344 30.8281C50.4635 31.2135 50.8021 31.5156 51.25 31.7344C51.7083 31.9531 52.2917 32.0625 53 32.0625C53.5729 32.0625 54.0573 31.9375 54.4531 31.6875C54.8594 31.4271 55.1875 31.0729 55.4375 30.625C55.6875 30.1667 55.8698 29.6354 55.9844 29.0312C56.099 28.4167 56.1562 27.75 56.1562 27.0312ZM39.2969 27.0312V26.7031C39.2969 25.6615 39.3802 24.6875 39.5469 23.7812C39.724 22.8646 39.9844 22.0417 40.3281 21.3125C40.6719 20.5729 41.0938 19.9427 41.5938 19.4219C42.0938 18.8906 42.6719 18.4844 43.3281 18.2031C43.9844 17.9219 44.7188 17.7812 45.5312 17.7812C46.4375 17.7812 47.2188 17.9583 47.875 18.3125C48.5312 18.6667 49.0833 19.1667 49.5312 19.8125C49.9792 20.4479 50.3385 21.1979 50.6094 22.0625C50.8802 22.9167 51.0885 23.8542 51.2344 24.875V28.5312C51.099 29.5 50.8906 30.401 50.6094 31.2344C50.3385 32.0573 49.974 32.776 49.5156 33.3906C49.0677 34.0052 48.5156 34.4792 47.8594 34.8125C47.2031 35.1458 46.4167 35.3125 45.5 35.3125C44.5 35.3125 43.6146 35.1094 42.8438 34.7031C42.0729 34.2969 41.4219 33.724 40.8906 32.9844C40.3698 32.2448 39.974 31.3698 39.7031 30.3594C39.4323 29.349 39.2969 28.2396 39.2969 27.0312ZM43.4375 26.7031V27.0312C43.4375 27.75 43.4896 28.4167 43.5938 29.0312C43.7083 29.6354 43.8854 30.1667 44.125 30.625C44.375 31.0729 44.6979 31.4271 45.0938 31.6875C45.4896 31.9375 45.974 32.0625 46.5469 32.0625C47.2656 32.0625 47.849 31.9479 48.2969 31.7188C48.7448 31.4792 49.0833 31.1562 49.3125 30.75C49.5521 30.3333 49.6927 29.849 49.7344 29.2969V24.1094C49.7031 23.4948 49.5729 22.9583 49.3438 22.5C49.1146 22.0417 48.776 21.6823 48.3281 21.4219C47.8802 21.1615 47.2969 21.0312 46.5781 21.0312C46.0052 21.0312 45.5156 21.1823 45.1094 21.4844C44.7135 21.776 44.3906 22.1823 44.1406 22.7031C43.901 23.224 43.724 23.8281 43.6094 24.5156C43.4948 25.2031 43.4375 25.9323 43.4375 26.7031ZM47.6719 41.5V11H51.8281V41.5H47.6719ZM67.5312 29.1094L73.6875 18.0938H77.8281V35H73.6875V23.9688L67.5312 35H63.3906V18.0938H67.5312V29.1094ZM85.9844 18.0938V35H81.8594V18.0938H85.9844ZM97 18.0938L89.5469 28.4688H85.1562L84.6406 24.6875H87.6875L91.7969 18.0938H97ZM92.0469 35L87.4219 27.75L90.8594 25.5938L97.5312 35H92.0469ZM106.109 32.0625C106.693 32.0625 107.214 31.9479 107.672 31.7188C108.13 31.4896 108.495 31.1667 108.766 30.75C109.047 30.3333 109.198 29.849 109.219 29.2969H113.109C113.089 30.4427 112.766 31.4688 112.141 32.375C111.516 33.2812 110.682 34 109.641 34.5312C108.609 35.0521 107.453 35.3125 106.172 35.3125C104.87 35.3125 103.734 35.0938 102.766 34.6562C101.797 34.2188 100.99 33.6094 100.344 32.8281C99.7083 32.0469 99.2292 31.1406 98.9062 30.1094C98.5938 29.0781 98.4375 27.974 98.4375 26.7969V26.2969C98.4375 25.1198 98.5938 24.0156 98.9062 22.9844C99.2292 21.9531 99.7083 21.0469 100.344 20.2656C100.99 19.4844 101.797 18.875 102.766 18.4375C103.734 18 104.865 17.7812 106.156 17.7812C107.521 17.7812 108.719 18.0469 109.75 18.5781C110.792 19.1094 111.604 19.8594 112.188 20.8281C112.781 21.7969 113.089 22.9375 113.109 24.25H109.219C109.198 23.6458 109.062 23.1042 108.812 22.625C108.562 22.1458 108.208 21.7604 107.75 21.4688C107.292 21.1771 106.734 21.0312 106.078 21.0312C105.38 21.0312 104.797 21.1771 104.328 21.4688C103.87 21.7604 103.51 22.1615 103.25 22.6719C103 23.1719 102.823 23.7344 102.719 24.3594C102.625 24.974 102.578 25.6198 102.578 26.2969V26.7969C102.578 27.4844 102.625 28.1406 102.719 28.7656C102.823 29.3906 103 29.9531 103.25 30.4531C103.51 30.9427 103.87 31.3333 104.328 31.625C104.797 31.9167 105.391 32.0625 106.109 32.0625Z" fill="white"/>
<path d="M169.484 27.5156H173.781C173.667 29.0365 173.245 30.3854 172.516 31.5625C171.786 32.7292 170.771 33.6458 169.469 34.3125C168.167 34.9792 166.589 35.3125 164.734 35.3125C163.307 35.3125 162.021 35.0625 160.875 34.5625C159.74 34.0521 158.766 33.3281 157.953 32.3906C157.151 31.4427 156.536 30.3073 156.109 28.9844C155.682 27.651 155.469 26.1562 155.469 24.5V22.7656C155.469 21.1094 155.688 19.6146 156.125 18.2812C156.562 16.9479 157.188 15.8125 158 14.875C158.823 13.9271 159.807 13.1979 160.953 12.6875C162.109 12.1771 163.401 11.9219 164.828 11.9219C166.682 11.9219 168.25 12.2656 169.531 12.9531C170.812 13.6302 171.807 14.5625 172.516 15.75C173.224 16.9375 173.651 18.3021 173.797 19.8438H169.5C169.417 18.8854 169.208 18.0729 168.875 17.4062C168.552 16.7396 168.062 16.2344 167.406 15.8906C166.76 15.5365 165.901 15.3594 164.828 15.3594C163.995 15.3594 163.26 15.5156 162.625 15.8281C162 16.1406 161.479 16.6094 161.062 17.2344C160.646 17.849 160.333 18.6198 160.125 19.5469C159.917 20.4635 159.812 21.526 159.812 22.7344V24.5C159.812 25.6562 159.906 26.6927 160.094 27.6094C160.281 28.526 160.573 29.3021 160.969 29.9375C161.365 30.5729 161.875 31.0573 162.5 31.3906C163.125 31.724 163.87 31.8906 164.734 31.8906C165.786 31.8906 166.641 31.724 167.297 31.3906C167.964 31.0573 168.469 30.5677 168.812 29.9219C169.167 29.276 169.391 28.474 169.484 27.5156ZM185 18.0938V35H180.859V18.0938H185ZM190.5 18.0938V21.3125H175.453V18.0938H190.5ZM197.047 21.3438V41.5H192.906V18.0938H196.734L197.047 21.3438ZM207.906 26.375V26.7031C207.906 27.9323 207.76 29.0729 207.469 30.125C207.188 31.1667 206.771 32.0781 206.219 32.8594C205.667 33.6302 204.979 34.2344 204.156 34.6719C203.344 35.099 202.406 35.3125 201.344 35.3125C200.302 35.3125 199.396 35.1146 198.625 34.7188C197.854 34.3125 197.203 33.7396 196.672 33C196.141 32.2604 195.714 31.401 195.391 30.4219C195.078 29.4323 194.844 28.3542 194.688 27.1875V26.1406C194.844 24.901 195.078 23.776 195.391 22.7656C195.714 21.7448 196.141 20.8646 196.672 20.125C197.203 19.375 197.849 18.7969 198.609 18.3906C199.38 17.9844 200.281 17.7812 201.312 17.7812C202.385 17.7812 203.328 17.9844 204.141 18.3906C204.964 18.7969 205.656 19.3802 206.219 20.1406C206.781 20.901 207.203 21.8073 207.484 22.8594C207.766 23.9115 207.906 25.0833 207.906 26.375ZM203.766 26.7031V26.375C203.766 25.625 203.698 24.9323 203.562 24.2969C203.427 23.651 203.219 23.0885 202.938 22.6094C202.656 22.1198 202.292 21.7396 201.844 21.4688C201.396 21.1979 200.854 21.0625 200.219 21.0625C199.583 21.0625 199.036 21.1667 198.578 21.375C198.12 21.5833 197.745 21.8802 197.453 22.2656C197.161 22.651 196.932 23.1094 196.766 23.6406C196.609 24.1615 196.505 24.7396 196.453 25.375V27.9688C196.547 28.7396 196.729 29.4323 197 30.0469C197.271 30.6615 197.667 31.151 198.188 31.5156C198.719 31.8802 199.406 32.0625 200.25 32.0625C200.885 32.0625 201.427 31.9219 201.875 31.6406C202.323 31.3594 202.688 30.974 202.969 30.4844C203.25 29.9844 203.453 29.4115 203.578 28.7656C203.703 28.1198 203.766 27.4323 203.766 26.7031ZM210.188 26.7188V26.3906C210.188 25.151 210.365 24.0104 210.719 22.9688C211.073 21.9167 211.589 21.0052 212.266 20.2344C212.943 19.4635 213.771 18.8646 214.75 18.4375C215.729 18 216.844 17.7812 218.094 17.7812C219.365 17.7812 220.49 18 221.469 18.4375C222.458 18.8646 223.292 19.4635 223.969 20.2344C224.646 21.0052 225.161 21.9167 225.516 22.9688C225.87 24.0104 226.047 25.151 226.047 26.3906V26.7188C226.047 27.9479 225.87 29.0885 225.516 30.1406C225.161 31.1823 224.646 32.0938 223.969 32.875C223.292 33.6458 222.464 34.2448 221.484 34.6719C220.505 35.099 219.385 35.3125 218.125 35.3125C216.875 35.3125 215.755 35.099 214.766 34.6719C213.776 34.2448 212.943 33.6458 212.266 32.875C211.589 32.0938 211.073 31.1823 210.719 30.1406C210.365 29.0885 210.188 27.9479 210.188 26.7188ZM214.312 26.3906V26.7188C214.312 27.4583 214.385 28.151 214.531 28.7969C214.677 29.4427 214.901 30.0104 215.203 30.5C215.505 30.9896 215.896 31.375 216.375 31.6562C216.865 31.9271 217.448 32.0625 218.125 32.0625C218.792 32.0625 219.365 31.9271 219.844 31.6562C220.323 31.375 220.714 30.9896 221.016 30.5C221.328 30.0104 221.557 29.4427 221.703 28.7969C221.849 28.151 221.922 27.4583 221.922 26.7188V26.3906C221.922 25.6615 221.849 24.9792 221.703 24.3438C221.557 23.6979 221.328 23.1302 221.016 22.6406C220.714 22.1406 220.318 21.75 219.828 21.4688C219.349 21.1771 218.771 21.0312 218.094 21.0312C217.427 21.0312 216.854 21.1771 216.375 21.4688C215.896 21.75 215.505 22.1406 215.203 22.6406C214.901 23.1302 214.677 23.6979 214.531 24.3438C214.385 24.9792 214.312 25.6615 214.312 26.3906ZM233.219 29.1094L239.375 18.0938H243.516V35H239.375V23.9688L233.219 35H229.078V18.0938H233.219V29.1094ZM238.609 11.4531H241.609C241.609 12.3281 241.396 13.1042 240.969 13.7812C240.542 14.4583 239.932 14.9896 239.141 15.375C238.359 15.75 237.432 15.9375 236.359 15.9375C234.745 15.9375 233.464 15.5208 232.516 14.6875C231.568 13.8542 231.094 12.776 231.094 11.4531H234.094C234.094 12.0052 234.266 12.5 234.609 12.9375C234.953 13.375 235.536 13.5938 236.359 13.5938C237.182 13.5938 237.76 13.375 238.094 12.9375C238.438 12.5 238.609 12.0052 238.609 11.4531Z" fill="white"/>
<path d="M120 35V12.5L135 2L150 12.5V35H120Z" stroke="#FCDA54" stroke-width="3"/>
<path d="M151 5V8V9L148 7V5H151Z" fill="#FCDA54" stroke="#FCDA54"/>
<path d="M6.72 54.16C5.86667 54.16 5.072 54.0213 4.336 53.744C3.61067 53.456 2.976 53.056 2.432 52.544C1.89867 52.0213 1.48267 51.408 1.184 50.704C0.885333 50 0.736 49.232 0.736 48.4C0.736 47.568 0.885333 46.8 1.184 46.096C1.48267 45.392 1.904 44.784 2.448 44.272C2.992 43.7493 3.62667 43.3493 4.352 43.072C5.07733 42.784 5.872 42.64 6.736 42.64C7.65333 42.64 8.49067 42.8 9.248 43.12C10.0053 43.4293 10.6453 43.8933 11.168 44.512L9.824 45.776C9.41867 45.3387 8.96533 45.0133 8.464 44.8C7.96267 44.576 7.41867 44.464 6.832 44.464C6.24533 44.464 5.70667 44.56 5.216 44.752C4.736 44.944 4.31467 45.216 3.952 45.568C3.6 45.92 3.32267 46.336 3.12 46.816C2.928 47.296 2.832 47.824 2.832 48.4C2.832 48.976 2.928 49.504 3.12 49.984C3.32267 50.464 3.6 50.88 3.952 51.232C4.31467 51.584 4.736 51.856 5.216 52.048C5.70667 52.24 6.24533 52.336 6.832 52.336C7.41867 52.336 7.96267 52.2293 8.464 52.016C8.96533 51.792 9.41867 51.456 9.824 51.008L11.168 52.288C10.6453 52.896 10.0053 53.36 9.248 53.68C8.49067 54 7.648 54.16 6.72 54.16ZM16.0169 54V46.672L16.4809 47.152H13.0089V45.456H21.0089V47.152H17.5529L18.0169 46.672V54H16.0169ZM28.7956 54.112C28.1023 54.112 27.4676 53.952 26.8916 53.632C26.3263 53.312 25.873 52.832 25.5316 52.192C25.201 51.5413 25.0356 50.72 25.0356 49.728C25.0356 48.7253 25.1956 47.904 25.5156 47.264C25.8463 46.624 26.2943 46.1493 26.8596 45.84C27.425 45.52 28.0703 45.36 28.7956 45.36C29.6383 45.36 30.3796 45.5413 31.0196 45.904C31.6703 46.2667 32.1823 46.7733 32.5556 47.424C32.9396 48.0747 33.1316 48.8427 33.1316 49.728C33.1316 50.6133 32.9396 51.3867 32.5556 52.048C32.1823 52.6987 31.6703 53.2053 31.0196 53.568C30.3796 53.9307 29.6383 54.112 28.7956 54.112ZM24.0596 57.104V45.456H25.9636V47.472L25.8996 49.744L26.0596 52.016V57.104H24.0596ZM28.5716 52.4C29.0516 52.4 29.4783 52.2933 29.8516 52.08C30.2356 51.8667 30.5396 51.5573 30.7636 51.152C30.9876 50.7467 31.0996 50.272 31.0996 49.728C31.0996 49.1733 30.9876 48.6987 30.7636 48.304C30.5396 47.8987 30.2356 47.5893 29.8516 47.376C29.4783 47.1627 29.0516 47.056 28.5716 47.056C28.0916 47.056 27.6596 47.1627 27.2756 47.376C26.8916 47.5893 26.5876 47.8987 26.3636 48.304C26.1396 48.6987 26.0276 49.1733 26.0276 49.728C26.0276 50.272 26.1396 50.7467 26.3636 51.152C26.5876 51.5573 26.8916 51.8667 27.2756 52.08C27.6596 52.2933 28.0916 52.4 28.5716 52.4ZM40.5301 54.112C39.6555 54.112 38.8768 53.9253 38.1941 53.552C37.5115 53.168 36.9728 52.6453 36.5781 51.984C36.1835 51.3227 35.9861 50.5707 35.9861 49.728C35.9861 48.8747 36.1835 48.1227 36.5781 47.472C36.9728 46.8107 37.5115 46.2933 38.1941 45.92C38.8768 45.5467 39.6555 45.36 40.5301 45.36C41.4155 45.36 42.1995 45.5467 42.8821 45.92C43.5755 46.2933 44.1141 46.8053 44.4981 47.456C44.8928 48.1067 45.0901 48.864 45.0901 49.728C45.0901 50.5707 44.8928 51.3227 44.4981 51.984C44.1141 52.6453 43.5755 53.168 42.8821 53.552C42.1995 53.9253 41.4155 54.112 40.5301 54.112ZM40.5301 52.4C41.0208 52.4 41.4581 52.2933 41.8421 52.08C42.2261 51.8667 42.5248 51.5573 42.7381 51.152C42.9621 50.7467 43.0741 50.272 43.0741 49.728C43.0741 49.1733 42.9621 48.6987 42.7381 48.304C42.5248 47.8987 42.2261 47.5893 41.8421 47.376C41.4581 47.1627 41.0261 47.056 40.5461 47.056C40.0555 47.056 39.6181 47.1627 39.2341 47.376C38.8608 47.5893 38.5621 47.8987 38.3381 48.304C38.1141 48.6987 38.0021 49.1733 38.0021 49.728C38.0021 50.272 38.1141 50.7467 38.3381 51.152C38.5621 51.5573 38.8608 51.8667 39.2341 52.08C39.6181 52.2933 40.0501 52.4 40.5301 52.4ZM48.6659 54V45.456H50.6659V51.088L55.3859 45.456H57.2099V54H55.2099V48.368L50.5059 54H48.6659ZM63.2763 54V46.672L63.7403 47.152H60.2683V45.456H68.2683V47.152H64.8123L65.2763 46.672V54H63.2763ZM74.928 54.112C73.9787 54.112 73.1467 53.9253 72.432 53.552C71.728 53.168 71.1787 52.6453 70.784 51.984C70.4 51.3227 70.208 50.5707 70.208 49.728C70.208 48.8747 70.3947 48.1227 70.768 47.472C71.152 46.8107 71.6747 46.2933 72.336 45.92C73.008 45.5467 73.7707 45.36 74.624 45.36C75.456 45.36 76.1973 45.5413 76.848 45.904C77.4987 46.2667 78.0107 46.7787 78.384 47.44C78.7573 48.1013 78.944 48.88 78.944 49.776C78.944 49.8613 78.9387 49.9573 78.928 50.064C78.928 50.1707 78.9227 50.272 78.912 50.368H71.792V49.04H77.856L77.072 49.456C77.0827 48.9653 76.9813 48.5333 76.768 48.16C76.5547 47.7867 76.2613 47.4933 75.888 47.28C75.5253 47.0667 75.104 46.96 74.624 46.96C74.1333 46.96 73.7013 47.0667 73.328 47.28C72.9653 47.4933 72.6773 47.792 72.464 48.176C72.2613 48.5493 72.16 48.992 72.16 49.504V49.824C72.16 50.336 72.2773 50.7893 72.512 51.184C72.7467 51.5787 73.0773 51.8827 73.504 52.096C73.9307 52.3093 74.4213 52.416 74.976 52.416C75.456 52.416 75.888 52.3413 76.272 52.192C76.656 52.0427 76.9973 51.808 77.296 51.488L78.368 52.72C77.984 53.168 77.4987 53.5147 76.912 53.76C76.336 53.9947 75.6747 54.112 74.928 54.112ZM81.3741 53.984L81.4701 52.304C81.5448 52.3147 81.6141 52.3253 81.6781 52.336C81.7421 52.3467 81.8008 52.352 81.8541 52.352C82.1848 52.352 82.4408 52.2507 82.6221 52.048C82.8035 51.8453 82.9368 51.5733 83.0221 51.232C83.1181 50.88 83.1821 50.4907 83.2141 50.064C83.2568 49.6267 83.2888 49.1893 83.3101 48.752L83.4541 45.456H90.3661V54H88.3661V46.608L88.8301 47.152H84.7661L85.1981 46.592L85.0861 48.848C85.0541 49.6053 84.9901 50.3093 84.8941 50.96C84.8088 51.6 84.6701 52.16 84.4781 52.64C84.2968 53.12 84.0408 53.4933 83.7101 53.76C83.3901 54.0267 82.9795 54.16 82.4781 54.16C82.3181 54.16 82.1421 54.144 81.9501 54.112C81.7688 54.08 81.5768 54.0373 81.3741 53.984ZM98.9476 48.272C100.046 48.272 100.884 48.5173 101.46 49.008C102.036 49.4987 102.324 50.192 102.324 51.088C102.324 52.016 102.004 52.7413 101.364 53.264C100.724 53.776 99.8223 54.0267 98.6596 54.016L94.6596 54V45.456H96.6596V48.256L98.9476 48.272ZM98.4836 52.544C99.0703 52.5547 99.5183 52.432 99.8276 52.176C100.137 51.92 100.292 51.5467 100.292 51.056C100.292 50.5653 100.137 50.2133 99.8276 50C99.529 49.776 99.081 49.6587 98.4836 49.648L96.6596 49.632V52.528L98.4836 52.544ZM105.682 54V45.456H107.682V48.928H111.986V45.456H113.986V54H111.986V50.624H107.682V54H105.682ZM123.45 54V52.272L123.338 51.904V48.88C123.338 48.2933 123.162 47.84 122.81 47.52C122.458 47.1893 121.925 47.024 121.21 47.024C120.73 47.024 120.255 47.0987 119.786 47.248C119.327 47.3973 118.938 47.6053 118.618 47.872L117.834 46.416C118.293 46.064 118.837 45.8027 119.466 45.632C120.106 45.4507 120.767 45.36 121.45 45.36C122.687 45.36 123.642 45.6587 124.314 46.256C124.997 46.8427 125.338 47.7547 125.338 48.992V54H123.45ZM120.762 54.112C120.122 54.112 119.562 54.0053 119.082 53.792C118.602 53.568 118.229 53.264 117.962 52.88C117.706 52.4853 117.578 52.0427 117.578 51.552C117.578 51.072 117.69 50.64 117.914 50.256C118.149 49.872 118.527 49.568 119.05 49.344C119.573 49.12 120.266 49.008 121.13 49.008H123.61V50.336H121.274C120.591 50.336 120.133 50.448 119.898 50.672C119.663 50.8853 119.546 51.152 119.546 51.472C119.546 51.8347 119.69 52.1227 119.978 52.336C120.266 52.5493 120.666 52.656 121.178 52.656C121.669 52.656 122.106 52.544 122.49 52.32C122.885 52.096 123.167 51.7653 123.338 51.328L123.674 52.528C123.482 53.0293 123.135 53.4187 122.634 53.696C122.143 53.9733 121.519 54.112 120.762 54.112ZM134.837 54V51.088L135.125 51.424H132.565C131.391 51.424 130.469 51.1787 129.797 50.688C129.135 50.1867 128.805 49.4667 128.805 48.528C128.805 47.5253 129.157 46.7627 129.861 46.24C130.575 45.7173 131.525 45.456 132.709 45.456H136.629V54H134.837ZM128.693 54L130.997 50.736H133.045L130.837 54H128.693ZM134.837 50.448V46.608L135.125 47.136H132.773C132.154 47.136 131.674 47.2533 131.333 47.488C131.002 47.712 130.837 48.08 130.837 48.592C130.837 49.552 131.461 50.032 132.709 50.032H135.125L134.837 50.448ZM153.069 54L149.981 49.904L151.613 48.896L155.421 54H153.069ZM146.941 54V45.456H148.941V54H146.941ZM148.349 50.576V48.912H151.245V50.576H148.349ZM151.805 49.968L149.933 49.744L153.069 45.456H155.213L151.805 49.968ZM161.958 54.112C161.084 54.112 160.305 53.9253 159.622 53.552C158.94 53.168 158.401 52.6453 158.006 51.984C157.612 51.3227 157.414 50.5707 157.414 49.728C157.414 48.8747 157.612 48.1227 158.006 47.472C158.401 46.8107 158.94 46.2933 159.622 45.92C160.305 45.5467 161.084 45.36 161.958 45.36C162.844 45.36 163.628 45.5467 164.31 45.92C165.004 46.2933 165.542 46.8053 165.926 47.456C166.321 48.1067 166.518 48.864 166.518 49.728C166.518 50.5707 166.321 51.3227 165.926 51.984C165.542 52.6453 165.004 53.168 164.31 53.552C163.628 53.9253 162.844 54.112 161.958 54.112ZM161.958 52.4C162.449 52.4 162.886 52.2933 163.27 52.08C163.654 51.8667 163.953 51.5573 164.166 51.152C164.39 50.7467 164.502 50.272 164.502 49.728C164.502 49.1733 164.39 48.6987 164.166 48.304C163.953 47.8987 163.654 47.5893 163.27 47.376C162.886 47.1627 162.454 47.056 161.974 47.056C161.484 47.056 161.046 47.1627 160.662 47.376C160.289 47.5893 159.99 47.8987 159.766 48.304C159.542 48.6987 159.43 49.1733 159.43 49.728C159.43 50.272 159.542 50.7467 159.766 51.152C159.99 51.5573 160.289 51.8667 160.662 52.08C161.046 52.2933 161.478 52.4 161.958 52.4ZM170.094 54V45.456H172.19L175.63 51.52H174.798L178.414 45.456H180.286L180.302 54H178.494V47.6L178.814 47.808L175.614 53.104H174.75L171.534 47.664L171.918 47.568V54H170.094ZM184.585 54V45.456H192.777V54H190.793V46.688L191.257 47.152H186.121L186.585 46.688V54H184.585ZM202.259 54V52.272L202.147 51.904V48.88C202.147 48.2933 201.971 47.84 201.619 47.52C201.267 47.1893 200.734 47.024 200.019 47.024C199.539 47.024 199.065 47.0987 198.595 47.248C198.137 47.3973 197.747 47.6053 197.427 47.872L196.643 46.416C197.102 46.064 197.646 45.8027 198.275 45.632C198.915 45.4507 199.577 45.36 200.259 45.36C201.497 45.36 202.451 45.6587 203.123 46.256C203.806 46.8427 204.147 47.7547 204.147 48.992V54H202.259ZM199.571 54.112C198.931 54.112 198.371 54.0053 197.891 53.792C197.411 53.568 197.038 53.264 196.771 52.88C196.515 52.4853 196.387 52.0427 196.387 51.552C196.387 51.072 196.499 50.64 196.723 50.256C196.958 49.872 197.337 49.568 197.859 49.344C198.382 49.12 199.075 49.008 199.939 49.008H202.419V50.336H200.083C199.401 50.336 198.942 50.448 198.707 50.672C198.473 50.8853 198.355 51.152 198.355 51.472C198.355 51.8347 198.499 52.1227 198.787 52.336C199.075 52.5493 199.475 52.656 199.987 52.656C200.478 52.656 200.915 52.544 201.299 52.32C201.694 52.096 201.977 51.7653 202.147 51.328L202.483 52.528C202.291 53.0293 201.945 53.4187 201.443 53.696C200.953 53.9733 200.329 54.112 199.571 54.112ZM208.222 54V45.456H210.222V48.928H214.526V45.456H216.526V54H214.526V50.624H210.222V54H208.222ZM220.806 54V45.456H222.806V51.088L227.526 45.456H229.35V54H227.35V48.368L222.646 54H220.806ZM239.065 54V51.088L239.353 51.424H236.793C235.62 51.424 234.697 51.1787 234.025 50.688C233.364 50.1867 233.033 49.4667 233.033 48.528C233.033 47.5253 233.385 46.7627 234.089 46.24C234.804 45.7173 235.753 45.456 236.937 45.456H240.857V54H239.065ZM232.921 54L235.225 50.736H237.273L235.065 54H232.921ZM239.065 50.448V46.608L239.353 47.136H237.001C236.382 47.136 235.902 47.2533 235.561 47.488C235.23 47.712 235.065 48.08 235.065 48.592C235.065 49.552 235.689 50.032 236.937 50.032H239.353L239.065 50.448Z" fill="white"/>
</svg>
